<svg width="16" height="12" viewBox="0 0 16 12" fill="none" xmlns="http://www.w3.org/2000/svg">
<path fill-rule="evenodd" clip-rule="evenodd" d="M-2.86102e-05 5.99973C-2.86102e-05 5.85055 0.0592337 5.70748 0.164723 5.60199C0.270212 5.4965 0.413287 5.43723 0.562471 5.43723H13.8296L10.2892 1.89798C10.2369 1.84569 10.1954 1.7836 10.1671 1.71527C10.1388 1.64693 10.1243 1.5737 10.1243 1.49973C10.1243 1.42577 10.1388 1.35253 10.1671 1.2842C10.1954 1.21587 10.2369 1.15378 10.2892 1.10148C10.3415 1.04918 10.4036 1.0077 10.4719 0.979395C10.5403 0.951091 10.6135 0.936523 10.6875 0.936523C10.7614 0.936523 10.8347 0.951091 10.903 0.979395C10.9713 1.0077 11.0334 1.04918 11.0857 1.10148L15.5857 5.60148C15.6381 5.65374 15.6797 5.71581 15.708 5.78415C15.7364 5.85248 15.751 5.92575 15.751 5.99973C15.751 6.07372 15.7364 6.14698 15.708 6.21532C15.6797 6.28366 15.6381 6.34573 15.5857 6.39798L11.0857 10.898C11.0334 10.9503 10.9713 10.9918 10.903 11.0201C10.8347 11.0484 10.7614 11.0629 10.6875 11.0629C10.6135 11.0629 10.5403 11.0484 10.4719 11.0201C10.4036 10.9918 10.3415 10.9503 10.2892 10.898C10.2369 10.8457 10.1954 10.7836 10.1671 10.7153C10.1388 10.6469 10.1243 10.5737 10.1243 10.4997C10.1243 10.4258 10.1388 10.3525 10.1671 10.2842C10.1954 10.2159 10.2369 10.1538 10.2892 10.1015L13.8296 6.56223H0.562471C0.413287 6.56223 0.270212 6.50297 0.164723 6.39748C0.0592337 6.29199 -2.86102e-05 6.14892 -2.86102e-05 5.99973Z" fill="#004187"/>
</svg>
