<svg xmlns="http://www.w3.org/2000/svg" width="52" height="30" viewBox="0 0 52 30" fill="none"><path d="M50 13C51.1046 13 52 13.8954 52 15C52 16.1046 51.1046 17 50 17L50 13ZM0.585785 16.4142C-0.195263 15.6332 -0.195263 14.3668 0.585785 13.5858L13.3137 0.857868C14.0948 0.0768187 15.3611 0.0768186 16.1421 0.857867C16.9232 1.63892 16.9232 2.90525 16.1421 3.68629L4.82843 15L16.1421 26.3137C16.9232 27.0948 16.9232 28.3611 16.1421 29.1421C15.3611 29.9232 14.0948 29.9232 13.3137 29.1421L0.585785 16.4142ZM50 17L2 17L2 13L50 13L50 17Z" fill="white"></path></svg>