<svg width="24" height="17" viewBox="0 0 24 17" fill="none" xmlns="http://www.w3.org/2000/svg">
<g opacity="0.5">
<path d="M19.8748 16.4839H4.12497C3.29648 16.4829 2.50219 16.1526 1.91636 15.5653C1.33052 14.9781 1.00097 14.1819 1 13.3514V3.90228C1.00097 3.07179 1.33052 2.27559 1.91636 1.68834C2.50219 1.1011 3.29648 0.770751 4.12497 0.769775H19.8748C20.7033 0.770751 21.4976 1.1011 22.0834 1.68834C22.6693 2.27559 22.9988 3.07179 22.9998 3.90228V13.3514C22.9988 14.1819 22.6693 14.9781 22.0834 15.5653C21.4976 16.1526 20.7033 16.4829 19.8748 16.4839ZM4.12497 1.87537C3.58869 1.87537 3.07438 2.08892 2.69517 2.46904C2.31597 2.84916 2.10293 3.36471 2.10293 3.90228V13.3514C2.10293 13.889 2.31597 14.4045 2.69517 14.7847C3.07438 15.1648 3.58869 15.3783 4.12497 15.3783H19.8748C20.4111 15.3783 20.9254 15.1648 21.3046 14.7847C21.6838 14.4045 21.8969 13.889 21.8969 13.3514V3.90228C21.8969 3.36471 21.6838 2.84916 21.3046 2.46904C20.9254 2.08892 20.4111 1.87537 19.8748 1.87537H4.12497Z" fill="#6F7070" stroke="#6F7070" stroke-width="0.6"/>
<path d="M11.9999 11.2459C11.3009 11.247 10.6205 11.0193 10.062 10.5973L1.24113 3.89954C1.1788 3.85563 1.12594 3.79955 1.08568 3.73467C1.04542 3.66978 1.0186 3.59742 1.00682 3.5219C0.995043 3.44638 0.998544 3.36925 1.01712 3.29511C1.03569 3.22098 1.06895 3.15136 1.11492 3.09043C1.16089 3.02949 1.21862 2.97847 1.28466 2.94043C1.35071 2.90239 1.42371 2.87811 1.49931 2.86902C1.57491 2.85994 1.65156 2.86624 1.72468 2.88756C1.7978 2.90888 1.86589 2.94477 1.92488 2.9931L10.7457 9.69847C11.1079 9.96994 11.5479 10.1166 11.9999 10.1166C12.4519 10.1166 12.8918 9.96994 13.2541 9.69847L22.0749 2.9931C22.1339 2.94477 22.202 2.90888 22.2751 2.88756C22.3482 2.86624 22.4249 2.85994 22.5005 2.86902C22.5761 2.87811 22.6491 2.90239 22.7151 2.94043C22.7812 2.97847 22.8389 3.02949 22.8849 3.09043C22.9308 3.15136 22.9641 3.22098 22.9827 3.29511C23.0012 3.36925 23.0048 3.44638 22.993 3.5219C22.9812 3.59742 22.9544 3.66978 22.9141 3.73467C22.8739 3.79955 22.821 3.85563 22.7587 3.89954L13.9378 10.5973C13.3793 11.0193 12.6989 11.247 11.9999 11.2459Z" fill="#6F7070" stroke="#6F7070" stroke-width="0.6"/>
<path d="M2.61129 15.436C2.49718 15.4362 2.38572 15.4014 2.2917 15.3363C2.19767 15.2712 2.12553 15.1788 2.08484 15.0714C2.04415 14.964 2.03684 14.8467 2.06387 14.7351C2.09091 14.6234 2.15102 14.5227 2.23622 14.4462L8.08998 8.24689C8.2014 8.1467 8.34776 8.09519 8.49688 8.10369C8.64601 8.11219 8.78567 8.18001 8.88514 8.29223C8.98462 8.40444 9.03576 8.55186 9.02732 8.70206C9.01888 8.85226 8.95155 8.99292 8.84013 9.09312L2.98637 15.2925C2.88388 15.3864 2.74985 15.4377 2.61129 15.436ZM21.3927 15.436C21.2542 15.4377 21.1202 15.3864 21.0177 15.2925L15.1639 9.09312C15.0525 8.99292 14.9851 8.85226 14.9767 8.70206C14.9683 8.55186 15.0194 8.40444 15.1189 8.29223C15.2184 8.18001 15.358 8.11219 15.5071 8.10369C15.6563 8.09519 15.8026 8.1467 15.914 8.24689L21.7641 14.4462C21.8493 14.5227 21.9094 14.6234 21.9364 14.7351C21.9634 14.8467 21.9561 14.964 21.9154 15.0714C21.8748 15.1788 21.8026 15.2712 21.7086 15.3363C21.6146 15.4014 21.5031 15.4362 21.389 15.436H21.3927Z" fill="#6F7070" stroke="#6F7070" stroke-width="0.6"/>
</g>
</svg>
