<svg width="28" height="28" viewBox="0 0 28 28" fill="none" xmlns="http://www.w3.org/2000/svg">
<path d="M14.5002 17.3866C12.8073 17.3866 11.4331 16.0933 11.4331 14.4999C11.4331 12.9066 12.8073 11.6133 14.5002 11.6133C16.1931 11.6133 17.5673 12.9066 17.5673 14.4999C17.5673 16.0933 16.1931 17.3866 14.5002 17.3866ZM14.5002 12.6133C13.3952 12.6133 12.4956 13.4599 12.4956 14.4999C12.4956 15.5399 13.3952 16.3866 14.5002 16.3866C15.6052 16.3866 16.5048 15.5399 16.5048 14.4999C16.5048 13.4599 15.6052 12.6133 14.5002 12.6133Z" fill="#004187"/>
<path d="M14.5001 20.5134C11.8368 20.5134 9.32222 19.0467 7.59389 16.5C6.84305 15.4 6.84305 13.6067 7.59389 12.5C9.3293 9.95336 11.8439 8.48669 14.5001 8.48669C17.1564 8.48669 19.671 9.95336 21.3993 12.5C22.1501 13.6 22.1501 15.3934 21.3993 16.5C19.671 19.0467 17.1564 20.5134 14.5001 20.5134ZM14.5001 9.48669C12.2122 9.48669 10.0235 10.78 8.49347 13.04C7.96222 13.82 7.96222 15.18 8.49347 15.96C10.0235 18.22 12.2122 19.5134 14.5001 19.5134C16.7881 19.5134 18.9768 18.22 20.5068 15.96C21.0381 15.18 21.0381 13.82 20.5068 13.04C18.9768 10.78 16.7881 9.48669 14.5001 9.48669Z" fill="#004187"/>
<circle cx="14" cy="14" r="13.5" stroke="#004187"/>
<line x1="24.3536" y1="4.35355" x2="4.35355" y2="24.3536" stroke="#004187"/>
</svg>
