<svg width="150" height="150" viewBox="0 0 150 150" fill="none" xmlns="http://www.w3.org/2000/svg">
<circle cx="75" cy="75" r="75" transform="rotate(-90 75 75)" fill="white"/>
<path d="M73.0708 72.2165L73.0728 72.2173C73.6432 72.4419 74.3626 72.5662 75.1046 72.5662C75.8417 72.5662 76.5639 72.4516 77.1402 72.2159C77.1408 72.2157 77.1413 72.2155 77.1418 72.2152L96.6529 64.4124L96.6545 64.4118C97.2291 64.1791 97.5954 63.8652 97.815 63.5281C98.0334 63.1929 98.0881 62.8638 98.0881 62.6291C98.0881 62.3978 98.0371 62.0663 97.8193 61.7285C97.6001 61.3885 97.2322 61.0737 96.6519 60.8452C96.6515 60.8451 96.6512 60.8449 96.6508 60.8448L77.1393 53.0334C77.1392 53.0334 77.1392 53.0334 77.1391 53.0334C76.5615 52.8015 75.8222 52.694 75.1046 52.694C74.3871 52.694 73.648 52.8015 73.0706 53.0333C73.0705 53.0334 73.0703 53.0334 73.0702 53.0335L53.5566 60.8373L53.5566 60.8373L53.5551 60.838C52.9805 61.0706 52.6142 61.3845 52.3945 61.7216C52.1761 62.0568 52.1215 62.3859 52.1215 62.6206C52.1215 62.8515 52.1723 63.1846 52.3894 63.5242C52.6083 63.8664 52.9762 64.184 53.5577 64.4128C53.5581 64.413 53.5585 64.4131 53.5588 64.4133L73.0708 72.2165ZM73.9932 69.9095L55.7964 62.6291L73.9932 55.3487C74.2431 55.2488 74.6569 55.1871 75.1034 55.1871C75.5504 55.1871 75.961 55.2489 76.2055 55.348L76.2072 55.3487L94.4041 62.6291L76.2072 69.9095C76.2072 69.9095 76.2072 69.9095 76.2072 69.9095C75.9573 70.0095 75.5436 70.0711 75.0971 70.0711C74.6502 70.0711 74.2396 70.0094 73.9949 69.9102L73.9932 69.9095Z" fill="#353535" stroke="#353535" stroke-width="0.8"/>
<path d="M52.5974 72.4689L52.604 72.453L52.6006 72.4704L73.0695 80.6633C73.0695 80.6633 73.0695 80.6633 73.0695 80.6633C73.6562 80.8996 74.3956 81.0048 75.1046 81.0048C75.8148 81.0048 76.5446 80.8992 77.1376 80.6641L77.1388 80.6636L97.6085 72.4704L97.6121 72.4689C98.2424 72.2095 98.5557 71.491 98.3057 70.854L98.3057 70.854L98.3033 70.848C98.0437 70.2169 97.3246 69.9044 96.6879 70.1543L96.6879 70.1543L96.6854 70.1553L76.2166 78.3478C76.2165 78.3479 76.2163 78.3479 76.2161 78.348C75.9507 78.4534 75.5415 78.5162 75.1056 78.5162C74.6691 78.5162 74.2628 78.4532 74.0028 78.3485L74.0019 78.3481L53.5323 70.1553L53.5323 70.1553L53.5298 70.1543C52.8979 69.9063 52.1756 70.2039 51.9144 70.8491C51.6511 71.4896 51.9679 72.2099 52.5974 72.4689Z" fill="#353535" stroke="#353535" stroke-width="0.8"/>
<path d="M96.7659 78.3526H96.7568L96.6853 78.3812L76.2164 86.5651C76.2162 86.5652 76.2161 86.5652 76.216 86.5653C75.9506 86.6707 75.5413 86.7335 75.1054 86.7335C74.6688 86.7335 74.2625 86.6705 74.0025 86.5658L74.0015 86.5654L53.5319 78.3812L53.5319 78.3812L53.5295 78.3803C52.8976 78.1322 52.1752 78.4299 51.9141 79.0751C51.6507 79.717 51.9691 80.438 52.6083 80.6959L52.6093 80.6964L73.0781 88.8892C73.0784 88.8893 73.0786 88.8894 73.0789 88.8895C73.6652 89.1256 74.4046 89.2307 75.1133 89.2307C75.8232 89.2307 76.553 89.1251 77.146 88.89L77.1472 88.8895L97.6169 80.6964L97.6204 80.6949C98.2513 80.4354 98.564 79.7168 98.314 79.0799L98.3142 79.0799L98.309 79.0678C98.0517 78.4705 97.3841 78.1556 96.7659 78.3526Z" fill="#353535" stroke="#353535" stroke-width="0.8"/>
<path d="M96.7658 86.5799H96.7568L96.6853 86.6085L76.2165 94.7927C76.2163 94.7928 76.2161 94.7929 76.2159 94.7929C75.9503 94.8983 75.543 94.9609 75.1085 94.9609C74.6737 94.9609 74.2664 94.8982 74.001 94.7929C74.0009 94.7928 74.0008 94.7928 74.0007 94.7927L53.5319 86.6085L53.5319 86.6085L53.5295 86.6076C52.8976 86.3595 52.1752 86.6572 51.9141 87.3024C51.6506 87.9444 51.9692 88.6652 52.608 88.9235L52.6095 88.9241L73.0779 97.1078C73.0781 97.1078 73.0783 97.1079 73.0785 97.108C73.6621 97.3435 74.4005 97.4584 75.1133 97.4584C75.8221 97.4584 76.5535 97.3528 77.1491 97.1075C77.1498 97.1072 77.1505 97.1069 77.1512 97.1066L97.6167 88.9241L97.6206 88.9225C98.2513 88.6626 98.564 87.9442 98.314 87.3072L98.3142 87.3072L98.3102 87.2978C98.0515 86.6854 97.3802 86.3837 96.7658 86.5799Z" fill="#353535" stroke="#353535" stroke-width="0.8"/>
</svg>
