<svg width="150" height="150" viewBox="0 0 150 150" fill="none" xmlns="http://www.w3.org/2000/svg">
<circle cx="75" cy="75" r="75" transform="rotate(-90 75 75)" fill="white"/>
<path d="M45.6125 52.9985H60.5623C61.3517 52.9985 62.1082 53.3134 62.665 53.8726L62.6651 53.8727C63.1263 54.3362 63.4188 54.9365 63.5033 55.5778H63.5291V55.9778V58.0689L82.988 58.0383L82.9886 58.0382C83.5535 58.0383 84.0115 58.4966 84.0115 59.0615C84.0115 59.626 83.5535 60.0841 82.989 60.0843L82.9893 60.0843L82.9886 59.6843V60.0843L63.5281 60.115L63.5285 62.1698V62.1709C63.5266 62.9569 63.2138 63.7103 62.658 64.2661L62.394 64.0022L62.658 64.2661C62.1021 64.822 61.3487 65.1348 60.5631 65.1367L60.5621 65.1367L54.1061 65.1367L54.0687 69.7502H59.0232C59.5884 69.7502 60.046 70.2086 60.046 70.773C60.046 71.3378 59.5886 71.7963 59.0232 71.7963H47.1871C46.6221 71.7963 46.1639 71.3381 46.1639 70.773C46.1639 70.2084 46.622 69.7504 47.1867 69.7502C47.1868 69.7502 47.187 69.7502 47.1871 69.7502H52.0229L52.0602 65.1367H45.612H45.6111V64.7367C44.9274 64.74 44.2707 64.4714 43.786 63.9896L45.6125 52.9985ZM45.6125 52.9985C44.8184 52.9931 44.0558 53.306 43.4944 53.8674L43.4944 53.8674C42.933 54.4288 42.6201 55.1914 42.6255 55.9855L45.6125 52.9985ZM61.482 62.1701L61.482 62.1978C61.4672 62.6934 61.0606 63.0905 60.5617 63.0905H45.6104C45.1017 63.0905 44.6897 62.6784 44.6897 62.1698V55.984H44.6897L44.6897 55.9783C44.6862 55.7315 44.7816 55.494 44.9545 55.3188C45.1276 55.1434 45.3638 55.0445 45.6104 55.0445H60.5617C61.0679 55.0445 61.4794 55.4535 61.4824 55.9604L61.482 62.1701Z" fill="#353535" stroke="#353535" stroke-width="0.8"/>
<path d="M96.0709 90.3765V90.3764H89.6181V65.0603C89.6181 64.7887 89.5106 64.5288 89.3187 64.3369C89.1271 64.1453 88.867 64.037 88.5953 64.037C88.0302 64.037 87.572 64.4952 87.572 65.0603V90.3764H81.1197C80.3338 90.3764 79.5806 90.6879 79.0242 91.2428L79.024 91.2429C78.4682 91.7978 78.1547 92.5505 78.1528 93.336V93.3369V99.5217C78.1474 100.312 78.4573 101.072 79.0133 101.633C79.5699 102.195 80.3276 102.513 81.1186 102.515H81.1196H87.5687L87.5314 107.128H82.6956C82.6955 107.128 82.6953 107.128 82.6952 107.128C82.1305 107.128 81.6724 107.586 81.6724 108.151C81.6724 108.716 82.1306 109.174 82.6956 109.174H94.5317C95.0971 109.174 95.5545 108.716 95.5545 108.151C95.5545 107.586 95.0969 107.128 94.5317 107.128H89.5772L89.6146 102.515H96.0706L96.0716 102.515C96.8572 102.513 97.6106 102.2 98.1665 101.644C98.7223 101.088 99.0351 100.335 99.037 99.5488V99.5478V93.3636C99.0425 92.5733 98.7324 91.814 98.1759 91.2531L98.1758 91.253C97.619 90.6924 96.8613 90.3765 96.0709 90.3765ZM78.5528 93.3369V99.5231C78.5478 100.208 78.816 100.866 79.2975 101.352C79.7793 101.838 80.435 102.113 81.1196 102.115L78.5528 93.3369ZM96.9916 99.4981V99.5055L96.9919 99.513C97.0012 99.7631 96.9085 100.006 96.7349 100.187C96.5608 100.367 96.3211 100.469 96.0713 100.468H96.0709H81.1196C80.6109 100.468 80.1989 100.056 80.1989 99.5477V93.362H80.199L80.1989 93.3563C80.1954 93.1095 80.2909 92.872 80.4637 92.6968C80.6368 92.5214 80.873 92.4225 81.1197 92.4225H96.0709C96.5771 92.4225 96.9886 92.8315 96.9916 93.3384V99.4981Z" fill="#353535" stroke="#353535" stroke-width="0.8"/>
<path d="M88.3454 62.2553C87.5904 62.1969 86.8779 61.871 86.3386 61.3316C85.6324 60.629 85.2937 59.6376 85.4214 58.6498L85.4214 58.6496C85.5497 57.6611 86.1301 56.7887 86.9926 56.2895L88.3454 62.2553ZM88.3454 62.2553L88.3501 62.2646L88.5956 62.2649C89.5922 62.2658 90.5321 61.8024 91.1392 61.0122L91.1393 61.0121C91.7461 60.2218 91.9506 59.1942 91.6923 58.2317C91.4344 57.2691 90.7427 56.4816 89.8219 56.1008L89.8217 56.1008C88.9009 55.7204 87.8551 55.7899 86.9927 56.2895L88.3454 62.2553ZM87.4359 59.0645C87.4336 58.8139 87.5129 58.5709 87.6596 58.3708L88.4919 58.3979L88.1076 58.0136C88.2593 57.9425 88.4261 57.9043 88.597 57.9038C88.9836 57.9032 89.345 58.0955 89.5604 58.4162C89.776 58.7375 89.8169 59.1449 89.6696 59.5024C89.5218 59.86 89.2059 60.1202 88.8271 60.1961C88.4477 60.2721 88.0555 60.1539 87.7819 59.8809L87.7819 59.8809L87.7804 59.8794C87.5623 59.6641 87.4384 59.3715 87.4359 59.0649L87.4359 59.0645Z" fill="#353535" stroke="#353535" stroke-width="0.8"/>
<path d="M60.6365 97.7929C61.2019 97.7929 61.6593 97.3344 61.6593 96.7697C61.6593 96.2046 61.2016 95.7469 60.6365 95.7469C60.0714 95.7469 59.6137 96.2046 59.6137 96.7697C59.6137 97.3344 60.0711 97.7929 60.6365 97.7929Z" fill="#353535" stroke="#353535" stroke-width="0.8"/>
<path d="M58.1447 97.799C58.7092 97.799 59.1676 97.3414 59.1676 96.7761C59.1676 96.2109 58.7092 95.7533 58.1447 95.7533C57.58 95.7533 57.1215 96.2107 57.1215 96.7761C57.1215 97.3416 57.58 97.799 58.1447 97.799Z" fill="#353535" stroke="#353535" stroke-width="0.8"/>
<path d="M76.311 97.4741L76.311 97.4741C76.0185 97.7666 75.5783 97.8543 75.1961 97.696C75.1961 97.696 75.1961 97.696 75.1961 97.696L75.3491 97.3265L76.311 97.4741ZM76.311 97.4741C76.6035 97.1817 76.6912 96.7419 76.5329 96.3596L76.5327 96.359M76.311 97.4741L76.5327 96.359M76.5327 96.359C76.3741 95.9775 76.0018 95.7279 75.5877 95.7279H75.422M76.5327 96.359L75.422 95.7279M75.422 95.7279L75.4059 95.744L75.422 95.7279Z" fill="#353535" stroke="#353535" stroke-width="0.8"/>
<path d="M67.167 96.3723C67.0088 96.7546 67.0965 97.1944 67.3889 97.4868L67.3889 97.4868C67.6814 97.7793 68.1212 97.867 68.5035 97.7087C68.8859 97.5504 69.1352 97.1771 69.1352 96.7635C69.1352 96.4924 69.0277 96.2321 68.8357 96.0401C68.6872 95.8916 68.4978 95.7937 68.2943 95.7569L68.278 95.7406H68.1123C67.6987 95.7406 67.3253 95.9899 67.167 96.3723ZM67.167 96.3723L67.5366 96.5253L67.167 96.3723Z" fill="#353535" stroke="#353535" stroke-width="0.8"/>
<path d="M63.1287 97.7929C63.6937 97.7929 64.1519 97.3348 64.1519 96.7697C64.1519 96.2043 63.6934 95.7469 63.1287 95.7469C62.5636 95.7469 62.1059 96.2046 62.1059 96.7697C62.1059 97.3344 62.5633 97.7929 63.1287 97.7929Z" fill="#353535" stroke="#353535" stroke-width="0.8"/>
<path d="M70.6043 97.7801C71.1693 97.7801 71.6275 97.3219 71.6275 96.7569C71.6275 96.192 71.1692 95.734 70.6043 95.734C70.039 95.734 69.5814 96.1924 69.5814 96.7569C69.5814 97.3216 70.0388 97.7801 70.6043 97.7801Z" fill="#353535" stroke="#353535" stroke-width="0.8"/>
<path d="M65.6213 97.7866C66.1861 97.7866 66.6441 97.3282 66.6441 96.7633C66.6441 96.1987 66.186 95.7405 65.6213 95.7405C65.0564 95.7405 64.598 96.1985 64.598 96.7633C64.598 97.3284 65.0562 97.7866 65.6213 97.7866Z" fill="#353535" stroke="#353535" stroke-width="0.8"/>
<path d="M73.0959 97.7738C73.6607 97.7738 74.1187 97.3154 74.1187 96.7505C74.1187 96.1859 73.6606 95.7277 73.0959 95.7277C72.531 95.7277 72.0727 96.1857 72.0727 96.7505C72.0727 97.3156 72.5308 97.7738 73.0959 97.7738Z" fill="#353535" stroke="#353535" stroke-width="0.8"/>
<path d="M53.0051 77.2784C53.5697 77.2784 54.0279 76.8202 54.0279 76.2556C54.0279 75.6907 53.5699 75.2323 53.0051 75.2323C52.44 75.2323 51.9818 75.6905 51.9818 76.2556C51.9818 76.8204 52.4402 77.2784 53.0051 77.2784Z" fill="#353535" stroke="#353535" stroke-width="0.8"/>
<path d="M53.2051 87.7079L53.1888 87.6916H53.0231C52.6092 87.6916 52.2365 87.9411 52.0783 88.3232C51.9202 88.705 52.007 89.1449 52.2998 89.4378L52.2998 89.4378C52.5923 89.7303 53.0325 89.8179 53.4148 89.6597C53.7972 89.5014 54.0464 89.1281 54.0464 88.7144C54.0464 88.4423 53.9378 88.183 53.747 87.9915L53.7465 87.991C53.598 87.8425 53.4087 87.7446 53.2051 87.7079Z" fill="#353535" stroke="#353535" stroke-width="0.8"/>
<path d="M52.8231 74.7702L52.8394 74.7865H53.0051C53.4191 74.7865 53.7918 74.537 53.9499 74.1549C54.1081 73.7728 54.0211 73.333 53.728 73.0399L53.728 73.0399C53.4352 72.7471 52.9953 72.6603 52.6135 72.8184C52.2313 72.9766 51.9818 73.3493 51.9818 73.7633C51.9818 74.035 52.0902 74.2951 52.2817 74.4866C52.4299 74.6348 52.6189 74.7333 52.8231 74.7702Z" fill="#353535" stroke="#353535" stroke-width="0.8"/>
<path d="M54.027 83.897L54.0405 83.8815V83.7312C54.0405 83.3175 53.7913 82.9442 53.4089 82.7859C53.0264 82.6276 52.5869 82.7156 52.2943 83.0075L52.2943 83.0075L52.2939 83.0078C52.0011 83.3007 51.9144 83.7406 52.0724 84.1224C52.2306 84.5045 52.6033 84.7541 53.0173 84.7541C53.2883 84.7541 53.5486 84.6466 53.7406 84.4546C53.8928 84.3025 53.9924 84.1071 54.027 83.897Z" fill="#353535" stroke="#353535" stroke-width="0.8"/>
<path d="M53.4021 82.1841C53.7844 82.0258 54.0337 81.6525 54.0337 81.2388C54.0337 80.9667 53.9251 80.7074 53.7343 80.5159L53.7338 80.5154C53.5853 80.3669 53.3962 80.269 53.1924 80.2322L53.1761 80.216H53.0104C52.5965 80.216 52.2238 80.4655 52.0656 80.8476C51.9075 81.2294 51.9942 81.6695 52.2877 81.9624M53.4021 82.1841L53.2492 81.8149L53.4021 82.1841ZM53.4021 82.1841C53.0198 82.3423 52.5801 82.2546 52.2877 81.9624M52.2877 81.9624C52.2876 81.9623 52.2875 81.9622 52.2875 81.9622L52.5703 81.6793L52.2878 81.9625C52.2878 81.9625 52.2877 81.9624 52.2877 81.9624Z" fill="#353535" stroke="#353535" stroke-width="0.8"/>
<path d="M53.2278 90.2025L53.2107 90.183H53.0292C52.6153 90.183 52.2427 90.4324 52.0845 90.8143C51.9256 91.1968 52.0134 91.6372 52.3058 91.9296C52.5983 92.2221 53.0388 92.3099 53.4214 92.1509L53.2678 91.7815C53.5006 91.6852 53.6524 91.4582 53.6524 91.2063C53.6524 91.0411 53.5865 90.8825 53.4697 90.7657C53.3529 90.6489 53.1944 90.583 53.0292 90.583L53.2278 90.2025Z" fill="#353535" stroke="#353535" stroke-width="0.8"/>
<path d="M53.0115 79.7699C53.5762 79.7699 54.0347 79.3125 54.0347 78.7471C54.0347 78.1817 53.5762 77.7243 53.0115 77.7243C52.447 77.7243 51.9887 78.1818 51.9887 78.7471C51.9887 79.3123 52.447 79.7699 53.0115 79.7699Z" fill="#353535" stroke="#353535" stroke-width="0.8"/>
<path d="M53.0232 87.2455C53.5879 87.2455 54.0465 86.7881 54.0465 86.2227C54.0465 85.6573 53.588 85.1999 53.0232 85.1999C52.4587 85.1999 52.0004 85.6574 52.0004 86.2227C52.0004 86.7879 52.4587 87.2455 53.0232 87.2455Z" fill="#353535" stroke="#353535" stroke-width="0.8"/>
<path d="M50.2209 95.2194L50.0423 95.2233L50.7404 94.5199C51.4946 93.76 52.5781 93.4273 53.6291 93.6327L53.6291 93.6327C54.68 93.8382 55.558 94.5553 55.9702 95.5433C56.3826 96.531 56.2738 97.6598 55.6809 98.5511L55.6809 98.5512C55.0879 99.4421 54.0888 99.9784 53.0181 99.9798L53.0174 99.9798C52.1697 99.9793 51.3565 99.6423 50.7568 99.0431L50.2209 95.2194ZM50.2209 95.2194C49.9571 95.6935 49.8156 96.2312 49.8168 96.7836C49.8187 97.6316 50.1567 98.4438 50.7567 99.043L50.2209 95.2194ZM53.8586 97.6L53.8136 97.6444C53.6033 97.8413 53.3256 97.9529 53.0352 97.9562C52.725 97.9592 52.4262 97.8374 52.2064 97.6182C51.9867 97.3991 51.8641 97.1009 51.8663 96.79L53.8586 97.6ZM53.8586 97.6L53.9093 97.5472M53.8586 97.6L53.9093 97.5472M53.9093 97.5472C54.0992 97.3368 54.2052 97.0629 54.2055 96.7776L54.2055 96.7772C54.2061 96.4706 54.0837 96.1761 53.8659 95.9595L53.9093 97.5472ZM52.2187 95.9673L52.2186 95.9672C51.9954 96.1836 51.8685 96.48 51.8663 96.7899L52.2187 95.9673ZM52.2187 95.9673L52.2246 95.9612M52.2187 95.9673L52.2246 95.9612M52.2246 95.9612C52.4399 95.7436 52.7335 95.6225 53.0391 95.6253L53.0391 95.6253M52.2246 95.9612L53.0391 95.6253M53.0391 95.6253L53.046 95.6253M53.0391 95.6253L53.046 95.6253M53.046 95.6253C53.3528 95.6228 53.6477 95.7431 53.8658 95.9595L53.046 95.6253Z" fill="#353535" stroke="#353535" stroke-width="0.8"/>
</svg>
