<svg width="150" height="150" viewBox="0 0 150 150" fill="none" xmlns="http://www.w3.org/2000/svg">
<circle cx="75" cy="75" r="75" transform="rotate(-90 75 75)" fill="white"/>
<path d="M97.7618 56.7078H51.6114C50.9396 56.7078 50.3925 57.2547 50.3919 57.9269C50.3919 57.927 50.3919 57.9271 50.3919 57.9272M97.7618 56.7078L49.9919 57.9269L50.3919 57.9272M97.7618 56.7078C98.4347 56.7078 98.981 57.2548 98.981 57.9269V62.7855H50.3919M97.7618 56.7078L50.3919 62.7855M50.3919 57.9272L50.3919 62.7855M50.3919 57.9272L50.3919 62.7855M97.7618 54.2886H51.6114C49.6041 54.2886 47.973 55.9203 47.973 57.9269V90.8525C47.973 92.8597 49.6048 94.4908 51.6114 94.4908H97.7618C99.768 94.4908 101.4 92.8591 101.4 90.8525V57.9269C101.4 55.9196 99.7678 54.2886 97.7618 54.2886ZM97.7618 92.0719H51.6114C50.9394 92.0719 50.3922 91.5247 50.3922 90.8528L50.3917 65.205H98.9807V90.8528C98.9807 91.5254 98.4342 92.0719 97.7618 92.0719Z" fill="#353535" stroke="#353535" stroke-width="0.8"/>
<path d="M56.8167 59.9083C56.8167 60.9628 55.9622 61.8167 54.9083 61.8167C53.8545 61.8167 53 60.9627 53 59.9083C53 58.8545 53.8545 58 54.9083 58C55.9622 58 56.8167 58.8545 56.8167 59.9083Z" fill="black"/>
<path d="M62.0237 59.9083C62.0237 60.9628 61.1692 61.8167 60.1154 61.8167C59.0615 61.8167 58.207 60.9627 58.207 59.9083C58.207 58.8545 59.0615 58 60.1154 58C61.1692 58 62.0237 58.8545 62.0237 59.9083Z" fill="black"/>
<path d="M67.2288 59.9083C67.2288 60.9628 66.3743 61.8167 65.3204 61.8167C64.2666 61.8167 63.4121 60.9627 63.4121 59.9083C63.4121 58.8545 64.2666 58 65.3204 58C66.3743 58 67.2288 58.8545 67.2288 59.9083Z" fill="black"/>
</svg>
