<svg width="151" height="151" viewBox="0 0 151 151" fill="none" xmlns="http://www.w3.org/2000/svg">
<circle cx="75.1533" cy="75.975" r="75" transform="rotate(-90 75.1533 75.975)" fill="white"/>
<path d="M83.3582 54.3495C82.9743 54.3495 82.6274 54.5805 82.4806 54.9362C82.3336 55.2915 82.4153 55.6996 82.6867 55.9711C82.6867 55.9711 82.6867 55.9711 82.6867 55.9711L85.9182 59.2029L76.7963 68.3245L76.7962 68.3245C76.4252 68.6955 76.4252 69.2967 76.7962 69.6678L82.1028 74.9743C82.281 75.1525 82.5223 75.2526 82.7746 75.2526C83.0264 75.2526 83.2682 75.1526 83.4465 74.9744C83.4465 74.9744 83.4465 74.9743 83.4465 74.9743L92.5684 65.8528L95.778 69.062C95.778 69.0621 95.778 69.0621 95.778 69.0621C96.0486 69.3327 96.4564 69.4166 96.8134 69.2679C97.1686 69.1209 97.3992 68.7737 97.3992 68.3906V55.2997C97.3992 54.9525 97.2132 54.6492 96.9357 54.4834L96.972 54.3495H96.4491H83.3582ZM85.6513 56.2491H95.499L95.4993 66.097L93.2398 63.8378C93.2398 63.8378 93.2398 63.8378 93.2398 63.8378C92.8688 63.4668 92.2676 63.4668 91.8966 63.8378C91.8966 63.8378 91.8966 63.8378 91.8966 63.8378L82.7746 72.9594L78.8113 68.9961L87.9329 59.8745C88.3039 59.5035 88.3039 58.9023 87.9329 58.5313C87.9329 58.5312 87.9329 58.5312 87.9329 58.5312L85.6513 56.2491Z" fill="#353535" stroke="#353535" stroke-width="0.8"/>
<path d="M54.2255 69.0619L54.2255 69.0619L57.457 65.8301L66.5789 74.9524L66.8504 74.6809L66.5789 74.9524C66.7571 75.1306 66.9984 75.2307 67.2507 75.2307C67.5025 75.2307 67.7443 75.1307 67.9226 74.9524L73.2291 69.6459C73.6002 69.2748 73.6002 68.6736 73.2291 68.3026L64.1072 59.1802L67.3167 55.971L67.3167 55.9709C67.5883 55.6994 67.6699 55.2911 67.5228 54.9358L67.5224 54.935C67.375 54.5814 67.0292 54.3494 66.6449 54.3494H53.554C53.0295 54.3494 52.6039 54.7742 52.6039 55.2995V55.343L52.6039 55.3431V68.3905C52.6039 68.7739 52.8344 69.1204 53.1894 69.2676C53.5466 69.4165 53.9547 69.3327 54.2255 69.0619ZM56.7852 63.8154L56.7851 63.8154L54.5038 66.0971L54.5037 56.2493H64.3512L62.0921 58.5084C61.9139 58.6866 61.8138 58.928 61.8138 59.1803C61.8138 59.4326 61.914 59.6739 62.0921 59.8521L71.2141 68.9741L67.2508 72.9373L58.1288 63.8154C57.9507 63.6372 57.7093 63.5371 57.457 63.5371C57.2052 63.5371 56.9634 63.6371 56.7852 63.8154Z" fill="#353535" stroke="#353535" stroke-width="0.8"/>
<path d="M53.554 99.1456C53.0292 99.1456 52.6039 98.7202 52.6039 98.1955L52.6039 85.1045C52.6039 84.7215 52.8344 84.3743 53.1899 84.2272C53.5466 84.0782 53.9548 84.1613 54.2258 84.4334C54.2259 84.4335 54.226 84.4336 54.2261 84.4337L57.435 87.6423L66.5562 78.5207L66.8097 78.7742L53.554 99.1456ZM53.554 99.1456H66.6449C67.0288 99.1456 67.3758 98.9145 67.5226 98.5585C67.6694 98.2034 67.5877 97.7954 67.3163 97.524L64.0848 94.2922L53.554 99.1456ZM58.1065 89.6571L67.2284 80.5355L71.1917 84.4988L62.0698 93.6208C61.6987 93.9918 61.6987 94.5931 62.0698 94.9641L64.3516 97.2459H54.5041L54.5037 87.398L56.7632 89.6571C56.7632 89.6571 56.7632 89.6571 56.7632 89.6571C57.1343 90.0282 57.7355 90.0282 58.1065 89.6571Z" fill="#353535" stroke="#353535" stroke-width="0.8"/>
<path d="M97.031 84.3536C97.2601 84.5308 97.3994 84.807 97.3994 85.1048V98.1957C97.3994 98.721 96.9739 99.1458 96.4493 99.1458H83.3584C82.9742 99.1458 82.628 98.9138 82.4811 98.5596L82.481 98.5593C82.3338 98.2041 82.4154 97.7958 82.687 97.5242L82.687 97.5242L85.8965 94.3149L76.7746 85.1926C76.4035 84.8215 76.4035 84.2203 76.7746 83.8493L82.0809 78.543L82.0811 78.5427L82.364 78.8256L97.031 84.3536ZM97.031 84.3536L97.0261 84.3163L96.8142 84.2277C96.4572 84.0784 96.049 84.1612 95.7776 84.4335C95.7775 84.4336 95.7773 84.4338 95.7772 84.4339L92.5464 87.6651L97.031 84.3536ZM78.7892 84.5217L82.7525 80.5584L91.8745 89.6807L91.8745 89.6807C92.2369 90.0431 92.8553 90.0436 93.2178 89.6807L78.7892 84.5217ZM78.7892 84.5217L87.9112 93.6436C87.9112 93.6436 87.9112 93.6436 87.9112 93.6436C88.0894 93.8218 88.1895 94.0631 88.1895 94.3155C88.1895 94.5678 88.0894 94.8091 87.9112 94.9873L85.6521 97.2464H95.4996V87.3987L93.218 89.6805L78.7892 84.5217Z" fill="#353535" stroke="#353535" stroke-width="0.8"/>
</svg>
