<svg width="18" height="20" viewBox="0 0 18 20" fill="none" xmlns="http://www.w3.org/2000/svg">
<g opacity="0.5">
<path d="M2.69829 19.8827H15.2903C16.006 19.8827 16.6923 19.595 17.1983 19.083C17.7043 18.5709 17.9886 17.8764 17.9886 17.1523V8.96102C17.9886 8.23687 17.7043 7.54238 17.1983 7.03032C16.6923 6.51827 16.006 6.2306 15.2903 6.2306H13.4915V5.32047C13.4915 4.11355 13.0177 2.95606 12.1743 2.10264C11.3309 1.24922 10.187 0.769775 8.99431 0.769775C7.80159 0.769775 6.65772 1.24922 5.81434 2.10264C4.97096 2.95606 4.49715 4.11355 4.49715 5.32047V6.2306H2.69829C1.98266 6.2306 1.29634 6.51827 0.790312 7.03032C0.284284 7.54238 0 8.23687 0 8.96102V17.1523C0 17.8764 0.284284 18.5709 0.790312 19.083C1.29634 19.595 1.98266 19.8827 2.69829 19.8827ZM6.29602 5.32047C6.29602 4.59632 6.5803 3.90182 7.08633 3.38977C7.59235 2.87772 8.27868 2.59005 8.99431 2.59005C9.70994 2.59005 10.3963 2.87772 10.9023 3.38977C11.4083 3.90182 11.6926 4.59632 11.6926 5.32047V6.2306H6.29602V5.32047ZM1.79886 8.96102C1.79886 8.71964 1.89362 8.48814 2.0623 8.31745C2.23097 8.14677 2.45975 8.05088 2.69829 8.05088H15.2903C15.5289 8.05088 15.7576 8.14677 15.9263 8.31745C16.095 8.48814 16.1898 8.71964 16.1898 8.96102V17.1523C16.1898 17.3936 16.095 17.6251 15.9263 17.7958C15.7576 17.9665 15.5289 18.0624 15.2903 18.0624H2.69829C2.45975 18.0624 2.23097 17.9665 2.0623 17.7958C1.89362 17.6251 1.79886 17.3936 1.79886 17.1523V8.96102Z" fill="#6F7070"/>
<path d="M8.99418 15.3853C10.236 15.3853 11.2428 14.3786 11.2428 13.1368C11.2428 11.8949 10.236 10.8882 8.99418 10.8882C7.75233 10.8882 6.74561 11.8949 6.74561 13.1368C6.74561 14.3786 7.75233 15.3853 8.99418 15.3853Z" fill="#6F7070"/>
</g>
</svg>
