<?xml version="1.0" encoding="utf-8"?>
<!-- Generator: Adobe Illustrator 16.0.0, SVG Export Plug-In . SVG Version: 6.00 Build 0)  -->
<!DOCTYPE svg PUBLIC "-//W3C//DTD SVG 1.1//EN" "http://www.w3.org/Graphics/SVG/1.1/DTD/svg11.dtd">
<svg version="1.1" id="Layer_1" xmlns="http://www.w3.org/2000/svg" xmlns:xlink="http://www.w3.org/1999/xlink" x="0px" y="0px"
	 width="228px" height="48.333px" viewBox="0 0 228 48.333" enable-background="new 0 0 228 48.333" xml:space="preserve">
<g>
	<path fill="#37BB9D" d="M12.75,23.937L2.824,2.775h7.961l2.922,7.558c0.907,2.469,1.764,4.736,2.67,7.255h0.202
		c0.957-2.519,1.864-4.787,2.771-7.255l2.973-7.558h7.759l-9.926,21.161v11.689H12.75V23.937z"/>
	<path fill="#37BB9D" d="M31.491,23.131c0-8.313,5.844-13.1,12.193-13.1c6.298,0,12.143,4.787,12.143,13.1s-5.844,13.1-12.143,13.1
		C37.335,36.23,31.491,31.444,31.491,23.131z M48.269,23.131c0-4.333-1.562-7.104-4.585-7.104c-3.073,0-4.585,2.771-4.585,7.104
		c0,4.333,1.512,7.104,4.585,7.104C46.707,30.235,48.269,27.464,48.269,23.131z"/>
	<path fill="#37BB9D" d="M60.662,26.154V10.635h7.407v14.561c0,3.577,0.957,4.736,3.124,4.736c1.864,0,2.973-0.807,4.434-2.771
		V10.635h7.406v24.991h-6.046l-0.554-3.477h-0.151c-2.116,2.52-4.434,4.081-7.86,4.081C62.98,36.23,60.662,32.401,60.662,26.154z"/>
	<path fill="#37BB9D" d="M89.531,10.635h6.046l0.504,4.383h0.201c1.814-3.375,4.535-4.988,7.104-4.988
		c1.411,0,2.267,0.202,2.973,0.504l-1.209,6.398c-0.907-0.251-1.663-0.403-2.721-0.403c-1.864,0-4.182,1.209-5.492,4.585v14.511
		h-7.407V10.635z"/>
	<path fill="#1D4484" d="M120.264,2.775h7.407v26.603h12.998v6.248h-20.405V2.775z"/>
	<path fill="#1D4484" d="M144.296,23.131c0-8.313,5.844-13.1,12.193-13.1c6.297,0,12.143,4.787,12.143,13.1s-5.846,13.1-12.143,13.1
		C150.14,36.23,144.296,31.444,144.296,23.131z M161.073,23.131c0-4.333-1.561-7.104-4.584-7.104c-3.074,0-4.586,2.771-4.586,7.104
		c0,4.333,1.512,7.104,4.586,7.104C159.513,30.235,161.073,27.464,161.073,23.131z"/>
	<path fill="#1D4484" d="M172.157,39.909c0-2.066,1.26-3.729,3.576-5.039v-0.201c-1.309-0.857-2.316-2.167-2.316-4.232
		c0-1.814,1.209-3.578,2.82-4.686v-0.202c-1.764-1.209-3.375-3.577-3.375-6.5c0-5.996,4.938-9.019,10.328-9.019
		c1.412,0,2.771,0.202,3.881,0.604h9.119v5.391h-3.98c0.453,0.756,0.807,1.965,0.807,3.275c0,5.744-4.334,8.415-9.826,8.415
		c-0.906,0-1.914-0.151-3.021-0.504c-0.656,0.554-0.908,1.007-0.908,1.864c0,1.259,1.008,1.864,3.779,1.864h4.031
		c6.146,0,9.521,1.864,9.521,6.348c0,5.19-5.391,8.969-13.955,8.969C176.792,46.257,172.157,44.343,172.157,39.909z M189.54,38.548
		c0-1.562-1.361-1.965-3.83-1.965h-2.568c-1.715,0-2.721-0.101-3.527-0.303c-0.908,0.807-1.361,1.563-1.361,2.47
		c0,1.864,2.217,2.872,5.543,2.872S189.54,40.261,189.54,38.548z M186.618,19.049c0-2.62-1.463-4.031-3.428-4.031
		s-3.426,1.36-3.426,4.031c0,2.771,1.461,4.182,3.426,4.182S186.618,21.821,186.618,19.049z"/>
	<path fill="#1D4484" d="M199.161,23.131c0-8.313,5.844-13.1,12.193-13.1c6.297,0,12.143,4.787,12.143,13.1s-5.846,13.1-12.143,13.1
		C205.005,36.23,199.161,31.444,199.161,23.131z M215.938,23.131c0-4.333-1.561-7.104-4.584-7.104c-3.074,0-4.586,2.771-4.586,7.104
		c0,4.333,1.512,7.104,4.586,7.104C214.378,30.235,215.938,27.464,215.938,23.131z"/>
</g>
</svg>
