<svg width="38" height="39" viewBox="0 0 38 39" fill="none" xmlns="http://www.w3.org/2000/svg">
<path fill-rule="evenodd" clip-rule="evenodd" d="M20 11.8401C20 11.2878 19.5523 10.8401 19 10.8401C18.4477 10.8401 18 11.2878 18 11.8401V18.8401H11C10.4477 18.8401 10 19.2878 10 19.8401C10 20.3924 10.4477 20.8401 11 20.8401H18V27.8401C18 28.3924 18.4477 28.8401 19 28.8401C19.5523 28.8401 20 28.3924 20 27.8401V20.8401H27C27.5523 20.8401 28 20.3924 28 19.8401C28 19.2878 27.5523 18.8401 27 18.8401H20V11.8401Z" fill="#fff"/>
<circle cx="19" cy="19.8401" r="18" stroke="#fff" stroke-width="2"/>
</svg>
