<svg width="23" height="7" viewBox="0 0 23 7" fill="none" xmlns="http://www.w3.org/2000/svg">
<path d="M2.11542 5.22456C1.41725 4.86253 0.727437 4.5047 0 4.12583C0.196492 3.82273 0.37208 3.53226 0.568572 3.25441C1.48414 1.97045 2.62129 0.918019 4.18486 0.396014C6.40061 -0.340687 8.49931 -0.0460066 10.4182 1.25059C10.9575 1.61683 11.43 2.07148 11.9316 2.48825C12.3204 2.81239 12.6842 3.17443 13.1022 3.4649C14.9501 4.75308 17.2369 4.56785 18.813 2.98078C19.2813 2.5135 19.6575 1.96624 20.1049 1.41898C20.7529 1.74733 21.4468 2.10516 22.1994 2.48825C21.8649 2.95973 21.5681 3.4228 21.2211 3.8522C20.1467 5.17826 18.8047 6.15491 17.0488 6.47485C14.8748 6.87056 12.9308 6.35698 11.2418 5.00145C10.6649 4.54259 10.1381 4.02479 9.58628 3.54068C8.69162 2.75767 7.65899 2.30723 6.42151 2.31144C5.07116 2.31565 4.01344 2.9008 3.14805 3.83536C2.80523 4.2016 2.54185 4.6352 2.24084 5.03934C2.20321 5.09406 2.16559 5.14879 2.11542 5.22456Z" fill="#004187"/>
</svg>
